<svg width="20" height="20" viewBox="0 0 20 20" fill="none" xmlns="http://www.w3.org/2000/svg">
<path d="M16.1375 13.2866C13.6259 16.2948 8.75708 16.1227 5.8879 13.2535C4.4907 11.8563 3.76725 9.63098 3.91438 7.43793C4.06085 5.25472 5.06296 3.18309 7.01567 2.03178C7.55755 1.73114 7.96609 1.56412 8.27135 1.4903C8.57738 1.4163 8.73646 1.44603 8.81706 1.48165C8.88946 1.51364 8.9669 1.58034 9.0427 1.74638C9.12235 1.92087 9.18206 2.16726 9.22773 2.49715C9.27172 2.8149 9.29846 3.17436 9.32841 3.57706L9.331 3.61192C9.36155 4.02238 9.39561 4.47042 9.45582 4.92419C9.57565 5.82732 9.80447 6.80412 10.3611 7.63912C11.697 9.6429 13.514 10.1796 15.0253 10.34C15.5155 10.3921 16.0069 10.4061 16.4185 10.4179C16.6146 10.4235 16.7926 10.4286 16.9438 10.437C17.1974 10.4512 17.3805 10.4735 17.5098 10.5088C17.6032 10.5342 17.6354 10.5576 17.6418 10.5628C17.6592 10.5881 17.7324 10.7188 17.5755 11.1302C17.4048 11.5778 16.9931 12.2618 16.1375 13.2866Z" stroke="#131313"/>
<rect x="16.3125" y="3.50854" width="0.956879" height="3.50856" rx="0.47844" fill="#131313"/>
<rect x="18.5449" y="4.78442" width="0.956879" height="3.50856" rx="0.47844" transform="rotate(90 18.5449 4.78442)" fill="#131313"/>
<rect x="13.7002" y="1.00244" width="0.668297" height="2.00489" rx="0.334148" fill="#131313"/>
<rect x="15.0371" y="1.67065" width="0.668297" height="2.00489" rx="0.334148" transform="rotate(90 15.0371 1.67065)" fill="#131313"/>
</svg>
