   <svg
      width="94"
      height="114"
      viewBox="0 0 94 114"
      fill="none"
      xmlns="http://www.w3.org/2000/svg"
    >
      <path
        d="M50.866 112.65C52.9818 114.07 55.847 113.514 57.2783 111.406C58.7208 109.282 58.1595 106.389 56.0272 104.958L45.1047 97.6295C44.3645 97.1328 44.5949 95.9891 45.4697 95.8177L68.8791 91.2325C76.7178 89.6971 83.6268 85.1168 88.0861 78.4992C92.5453 71.8816 94.1897 63.7687 92.6573 55.9454L87.7701 30.9945C87.2782 28.4832 84.8437 26.8462 82.3324 27.3381C79.8211 27.83 78.1841 30.2645 78.676 32.7758L83.5631 57.7267C85.7854 69.072 78.469 79.9296 67.1013 82.1562L43.6865 86.7425C42.8125 86.9137 42.1676 85.943 42.6641 85.2037L50.002 74.276C51.4244 72.1577 50.8597 69.2873 48.741 67.8656C46.6256 66.4463 43.7605 67.0075 42.337 69.12L29.8323 87.6771C27.0508 91.8049 28.148 97.4066 32.2812 100.18L50.866 112.65Z"
        fill="#F4F9DE"
      />
      <path
        d="M42.3509 0.786021C40.2351 -0.633671 37.3699 -0.0777185 35.9386 2.03024C34.4961 4.15466 35.0573 7.04712 37.1896 8.47789L48.1121 15.8068C48.8523 16.3035 48.6219 17.4472 47.7471 17.6186L24.3377 22.2038C16.499 23.7392 9.59007 28.3195 5.13079 34.9371C0.671524 41.5547 -0.972799 49.6676 0.55957 57.4909L5.44673 82.4418C5.93862 84.9531 8.37317 86.5901 10.8844 86.0982C13.3957 85.6063 15.0328 83.1718 14.5409 80.6605L9.65372 55.7096C7.43148 44.3643 14.7478 33.5067 26.1155 31.2801L49.5304 26.6938C50.4043 26.5226 51.0493 27.4932 50.5528 28.2326L43.2149 39.1603C41.7925 41.2786 42.3571 44.149 44.4759 45.5707C46.5912 46.99 49.4563 46.4288 50.8799 44.3163L63.3846 25.7591C66.1661 21.6314 65.0689 16.0297 60.9356 13.2563L42.3509 0.786021Z"
        fill="#F4F9DE"
      />
    </svg>
