 <svg
      width="154"
      height="87"
      viewBox="0 0 154 87"
      fill="none"
      xmlns="http://www.w3.org/2000/svg"
    >
      <path
        d="M94.682 70.0002L100.93 54.7322H102.426L108.652 70.0002H106.408L101.282 57.0862H102.052L96.882 70.0002H94.682ZM97.652 66.5462V64.7422H105.682V66.5462H97.652Z"
        fill="#F14D59"
      />
      <path
        d="M98.384 84.1202C97.832 84.1202 97.336 83.9922 96.896 83.7362C96.464 83.4802 96.12 83.1362 95.864 82.7042C95.608 82.2722 95.48 81.7922 95.48 81.2642C95.48 80.5282 95.736 79.7962 96.248 79.0682L98.696 75.6722H100.004L97.496 79.0922L97.088 79.3082C97.184 79.1402 97.3 79.0002 97.436 78.8882C97.572 78.7682 97.74 78.6762 97.94 78.6122C98.14 78.5482 98.376 78.5162 98.648 78.5162C99.136 78.5162 99.576 78.6322 99.968 78.8642C100.368 79.0962 100.688 79.4162 100.928 79.8242C101.176 80.2242 101.3 80.6922 101.3 81.2282C101.3 81.7562 101.168 82.2402 100.904 82.6802C100.648 83.1202 100.296 83.4722 99.848 83.7362C99.408 83.9922 98.92 84.1202 98.384 84.1202ZM98.384 83.0642C98.72 83.0642 99.02 82.9842 99.284 82.8242C99.556 82.6562 99.768 82.4362 99.92 82.1642C100.08 81.8842 100.16 81.5722 100.16 81.2282C100.16 80.8842 100.08 80.5762 99.92 80.3042C99.768 80.0242 99.556 79.8042 99.284 79.6442C99.02 79.4842 98.72 79.4042 98.384 79.4042C98.048 79.4042 97.744 79.4842 97.472 79.6442C97.208 79.8042 96.996 80.0242 96.836 80.3042C96.684 80.5762 96.608 80.8842 96.608 81.2282C96.608 81.5722 96.684 81.8842 96.836 82.1642C96.996 82.4442 97.208 82.6642 97.472 82.8242C97.744 82.9842 98.048 83.0642 98.384 83.0642ZM103.513 84.1202C103.289 84.1202 103.101 84.0442 102.949 83.8922C102.805 83.7322 102.733 83.5442 102.733 83.3282C102.733 83.1042 102.805 82.9202 102.949 82.7762C103.101 82.6242 103.289 82.5482 103.513 82.5482C103.737 82.5482 103.921 82.6242 104.065 82.7762C104.217 82.9202 104.293 83.1042 104.293 83.3282C104.293 83.5442 104.217 83.7322 104.065 83.8922C103.921 84.0442 103.737 84.1202 103.513 84.1202ZM106.346 84.0002V75.6722H107.462V84.0002H106.346ZM104.642 76.6802V75.6722H107.342V76.6802H104.642Z"
        fill="white"
      />
      <path
        d="M45.682 70.0002L51.93 54.7322H53.426L59.652 70.0002H57.408L52.282 57.0862H53.052L47.882 70.0002H45.682ZM48.652 66.5462V64.7422H56.682V66.5462H48.652Z"
        fill="#178F40"
      />
      <path
        d="M47.3 84.1202C46.748 84.1202 46.26 84.0162 45.836 83.8082C45.42 83.6002 45.096 83.3122 44.864 82.9442C44.632 82.5762 44.516 82.1602 44.516 81.6962C44.516 81.3202 44.588 80.9762 44.732 80.6642C44.876 80.3522 45.088 80.0882 45.368 79.8722C45.648 79.6482 45.976 79.4882 46.352 79.3922L46.388 79.7162C46.068 79.6282 45.796 79.4882 45.572 79.2962C45.348 79.0962 45.176 78.8642 45.056 78.6002C44.944 78.3282 44.888 78.0402 44.888 77.7362C44.888 77.3042 44.992 76.9242 45.2 76.5962C45.408 76.2682 45.692 76.0122 46.052 75.8282C46.42 75.6362 46.836 75.5402 47.3 75.5402C47.772 75.5402 48.188 75.6362 48.548 75.8282C48.908 76.0122 49.192 76.2682 49.4 76.5962C49.608 76.9242 49.712 77.3042 49.712 77.7362C49.712 78.0402 49.652 78.3282 49.532 78.6002C49.42 78.8642 49.252 79.0962 49.028 79.2962C48.812 79.4882 48.544 79.6282 48.224 79.7162L48.248 79.3922C48.632 79.4882 48.96 79.6482 49.232 79.8722C49.512 80.0882 49.724 80.3522 49.868 80.6642C50.02 80.9762 50.096 81.3202 50.096 81.6962C50.096 82.1602 49.98 82.5762 49.748 82.9442C49.516 83.3122 49.188 83.6002 48.764 83.8082C48.348 84.0162 47.86 84.1202 47.3 84.1202ZM47.3 83.1002C47.636 83.1002 47.928 83.0362 48.176 82.9082C48.432 82.7722 48.632 82.5882 48.776 82.3562C48.928 82.1242 49.004 81.8562 49.004 81.5522C49.004 81.2562 48.928 80.9922 48.776 80.7602C48.632 80.5282 48.432 80.3482 48.176 80.2202C47.928 80.0842 47.636 80.0162 47.3 80.0162C46.972 80.0162 46.68 80.0842 46.424 80.2202C46.168 80.3482 45.964 80.5282 45.812 80.7602C45.668 80.9922 45.596 81.2562 45.596 81.5522C45.596 81.8562 45.668 82.1242 45.812 82.3562C45.964 82.5882 46.168 82.7722 46.424 82.9082C46.68 83.0362 46.972 83.1002 47.3 83.1002ZM47.3 79.1402C47.7 79.1402 48.028 79.0162 48.284 78.7682C48.54 78.5202 48.668 78.2002 48.668 77.8082C48.668 77.4242 48.54 77.1122 48.284 76.8722C48.028 76.6242 47.7 76.5002 47.3 76.5002C46.908 76.5002 46.584 76.6242 46.328 76.8722C46.072 77.1122 45.944 77.4242 45.944 77.8082C45.944 78.2002 46.072 78.5202 46.328 78.7682C46.584 79.0162 46.908 79.1402 47.3 79.1402ZM52.3377 84.1202C52.1137 84.1202 51.9257 84.0442 51.7737 83.8922C51.6297 83.7322 51.5577 83.5442 51.5577 83.3282C51.5577 83.1042 51.6297 82.9202 51.7737 82.7762C51.9257 82.6242 52.1137 82.5482 52.3377 82.5482C52.5617 82.5482 52.7457 82.6242 52.8897 82.7762C53.0417 82.9202 53.1177 83.1042 53.1177 83.3282C53.1177 83.5442 53.0417 83.7322 52.8897 83.8922C52.7457 84.0442 52.5617 84.1202 52.3377 84.1202ZM57.0541 84.1202C56.4861 84.1202 55.9781 84.0202 55.5301 83.8202C55.0901 83.6122 54.7181 83.3122 54.4141 82.9202L55.1821 82.1522C55.3661 82.4322 55.6181 82.6562 55.9381 82.8242C56.2661 82.9842 56.6301 83.0642 57.0301 83.0642C57.4061 83.0642 57.7341 82.9922 58.0141 82.8482C58.3021 82.7042 58.5261 82.5042 58.6861 82.2482C58.8541 81.9842 58.9381 81.6722 58.9381 81.3122C58.9381 80.9442 58.8581 80.6322 58.6981 80.3762C58.5381 80.1202 58.3221 79.9282 58.0501 79.8002C57.7861 79.6642 57.4941 79.5962 57.1741 79.5962C56.8461 79.5962 56.5461 79.6362 56.2741 79.7162C56.0101 79.7962 55.7581 79.9322 55.5181 80.1242L55.5301 79.4042C55.6661 79.2362 55.8221 79.1002 55.9981 78.9962C56.1741 78.8922 56.3741 78.8122 56.5981 78.7562C56.8221 78.7002 57.0821 78.6722 57.3781 78.6722C57.9541 78.6722 58.4421 78.7922 58.8421 79.0322C59.2421 79.2722 59.5461 79.5962 59.7541 80.0042C59.9701 80.4122 60.0781 80.8682 60.0781 81.3722C60.0781 81.9002 59.9461 82.3722 59.6821 82.7882C59.4261 83.2042 59.0701 83.5322 58.6141 83.7722C58.1581 84.0042 57.6381 84.1202 57.0541 84.1202ZM55.5181 80.1242L54.9061 79.5122L55.2781 75.6722H56.3101L55.8901 79.6202L55.5181 80.1242ZM55.5061 76.6802L55.2781 75.6722H59.6581V76.6802H55.5061Z"
        fill="white"
      />
      <rect
        x="20"
        y="0.000244141"
        width="134"
        height="22"
        fill="#44A4FD"
        fillOpacity="0.87"
      />
      <rect
        y="22.0002"
        width="134"
        height="22"
        fill="#123456"
        fillOpacity="0.87"
      />
      <path
        d="M43.734 28.2202C42.634 28.2202 41.6147 28.0222 40.676 27.6262C39.7373 27.2156 38.916 26.6509 38.212 25.9322C37.5227 25.2136 36.9873 24.3776 36.606 23.4242C36.2247 22.4709 36.034 21.4516 36.034 20.3662C36.034 19.2662 36.2247 18.2396 36.606 17.2862C36.9873 16.3329 37.5227 15.5042 38.212 14.8002C38.916 14.0816 39.73 13.5242 40.654 13.1282C41.5927 12.7176 42.612 12.5122 43.712 12.5122C44.9147 12.5122 45.9707 12.7176 46.88 13.1282C47.7893 13.5389 48.596 14.0962 49.3 14.8002L47.87 16.2302C47.386 15.6876 46.792 15.2622 46.088 14.9542C45.3987 14.6462 44.6067 14.4922 43.712 14.4922C42.9053 14.4922 42.1647 14.6389 41.49 14.9322C40.8153 15.2109 40.2287 15.6142 39.73 16.1422C39.2313 16.6702 38.8427 17.2936 38.564 18.0122C38.3 18.7309 38.168 19.5156 38.168 20.3662C38.168 21.2169 38.3 22.0016 38.564 22.7202C38.8427 23.4389 39.2313 24.0622 39.73 24.5902C40.2287 25.1182 40.8153 25.5289 41.49 25.8222C42.1647 26.1009 42.9053 26.2402 43.712 26.2402C44.6653 26.2402 45.494 26.0862 46.198 25.7782C46.902 25.4556 47.496 25.0229 47.98 24.4802L49.41 25.8882C48.706 26.6216 47.8773 27.1936 46.924 27.6042C45.9853 28.0149 44.922 28.2202 43.734 28.2202ZM56.0073 28.2202C54.9806 28.2202 54.0566 27.9782 53.2353 27.4942C52.4139 27.0102 51.7613 26.3576 51.2773 25.5362C50.7933 24.7002 50.5513 23.7689 50.5513 22.7422C50.5513 21.7302 50.7933 20.8209 51.2773 20.0142C51.7613 19.1929 52.4139 18.5402 53.2353 18.0562C54.0566 17.5722 54.9806 17.3302 56.0073 17.3302C57.0193 17.3302 57.9359 17.5722 58.7573 18.0562C59.5933 18.5256 60.2533 19.1709 60.7373 19.9922C61.2213 20.8136 61.4633 21.7302 61.4633 22.7422C61.4633 23.7689 61.2213 24.7002 60.7373 25.5362C60.2533 26.3576 59.5933 27.0102 58.7573 27.4942C57.9359 27.9782 57.0193 28.2202 56.0073 28.2202ZM56.0073 26.3062C56.6673 26.3062 57.2539 26.1522 57.7673 25.8442C58.2806 25.5362 58.6839 25.1182 58.9773 24.5902C59.2706 24.0476 59.4173 23.4316 59.4173 22.7422C59.4173 22.0676 59.2633 21.4662 58.9553 20.9382C58.6619 20.4102 58.2586 19.9996 57.7453 19.7062C57.2466 19.3982 56.6673 19.2442 56.0073 19.2442C55.3473 19.2442 54.7606 19.3982 54.2473 19.7062C53.7339 19.9996 53.3306 20.4102 53.0373 20.9382C52.7439 21.4662 52.5973 22.0676 52.5973 22.7422C52.5973 23.4316 52.7439 24.0476 53.0373 24.5902C53.3306 25.1182 53.7339 25.5362 54.2473 25.8442C54.7606 26.1522 55.3473 26.3062 56.0073 26.3062ZM63.6942 28.0002V12.2922H65.6742V28.0002H63.6942ZM73.3451 28.2202C72.3185 28.2202 71.3945 27.9782 70.5731 27.4942C69.7518 27.0102 69.0991 26.3576 68.6151 25.5362C68.1311 24.7002 67.8891 23.7689 67.8891 22.7422C67.8891 21.7302 68.1311 20.8209 68.6151 20.0142C69.0991 19.1929 69.7518 18.5402 70.5731 18.0562C71.3945 17.5722 72.3185 17.3302 73.3451 17.3302C74.3571 17.3302 75.2738 17.5722 76.0951 18.0562C76.9311 18.5256 77.5911 19.1709 78.0751 19.9922C78.5591 20.8136 78.8011 21.7302 78.8011 22.7422C78.8011 23.7689 78.5591 24.7002 78.0751 25.5362C77.5911 26.3576 76.9311 27.0102 76.0951 27.4942C75.2738 27.9782 74.3571 28.2202 73.3451 28.2202ZM73.3451 26.3062C74.0051 26.3062 74.5918 26.1522 75.1051 25.8442C75.6185 25.5362 76.0218 25.1182 76.3151 24.5902C76.6085 24.0476 76.7551 23.4316 76.7551 22.7422C76.7551 22.0676 76.6011 21.4662 76.2931 20.9382C75.9998 20.4102 75.5965 19.9996 75.0831 19.7062C74.5845 19.3982 74.0051 19.2442 73.3451 19.2442C72.6851 19.2442 72.0985 19.3982 71.5851 19.7062C71.0718 19.9996 70.6685 20.4102 70.3751 20.9382C70.0818 21.4662 69.9351 22.0676 69.9351 22.7422C69.9351 23.4316 70.0818 24.0476 70.3751 24.5902C70.6685 25.1182 71.0718 25.5362 71.5851 25.8442C72.0985 26.1522 72.6851 26.3062 73.3451 26.3062ZM85.2341 28.2202C84.3834 28.2202 83.6134 28.0296 82.9241 27.6482C82.2494 27.2522 81.7214 26.7096 81.3401 26.0202C80.9587 25.3309 80.7681 24.5316 80.7681 23.6222V17.5502H82.7481V23.5342C82.7481 24.1062 82.8434 24.6049 83.0341 25.0302C83.2394 25.4409 83.5327 25.7562 83.9141 25.9762C84.2954 26.1962 84.7427 26.3062 85.2561 26.3062C86.0334 26.3062 86.6421 26.0642 87.0821 25.5802C87.5221 25.0816 87.7421 24.3996 87.7421 23.5342V17.5502H89.7221V23.6222C89.7221 24.5316 89.5314 25.3309 89.1501 26.0202C88.7687 26.7096 88.2407 27.2522 87.5661 27.6482C86.9061 28.0296 86.1287 28.2202 85.2341 28.2202ZM92.3758 28.0002V17.5502H94.3558V28.0002H92.3758ZM94.3558 22.0382L93.6078 21.7082C93.6078 20.3736 93.9158 19.3102 94.5318 18.5182C95.1478 17.7262 96.0352 17.3302 97.1938 17.3302C97.7218 17.3302 98.1985 17.4256 98.6238 17.6162C99.0492 17.7922 99.4452 18.0929 99.8118 18.5182L98.5138 19.8602C98.2938 19.6256 98.0518 19.4569 97.7878 19.3542C97.5238 19.2516 97.2158 19.2002 96.8638 19.2002C96.1305 19.2002 95.5292 19.4349 95.0598 19.9042C94.5905 20.3736 94.3558 21.0849 94.3558 22.0382ZM104.292 28.2202C103.705 28.2202 103.148 28.1469 102.62 28.0002C102.106 27.8389 101.63 27.6189 101.19 27.3402C100.75 27.0469 100.368 26.7022 100.046 26.3062L101.322 25.0302C101.703 25.4996 102.143 25.8516 102.642 26.0862C103.14 26.3062 103.698 26.4162 104.314 26.4162C104.93 26.4162 105.406 26.3136 105.744 26.1082C106.081 25.8882 106.25 25.5876 106.25 25.2062C106.25 24.8249 106.11 24.5316 105.832 24.3262C105.568 24.1062 105.223 23.9302 104.798 23.7982C104.372 23.6516 103.918 23.5122 103.434 23.3802C102.964 23.2336 102.517 23.0502 102.092 22.8302C101.666 22.6102 101.314 22.3096 101.036 21.9282C100.772 21.5469 100.64 21.0409 100.64 20.4102C100.64 19.7796 100.794 19.2369 101.102 18.7822C101.41 18.3129 101.835 17.9536 102.378 17.7042C102.935 17.4549 103.602 17.3302 104.38 17.3302C105.201 17.3302 105.927 17.4769 106.558 17.7702C107.203 18.0489 107.731 18.4742 108.142 19.0462L106.866 20.3222C106.572 19.9409 106.206 19.6476 105.766 19.4422C105.34 19.2369 104.856 19.1342 104.314 19.1342C103.742 19.1342 103.302 19.2369 102.994 19.4422C102.7 19.6329 102.554 19.9042 102.554 20.2562C102.554 20.6082 102.686 20.8796 102.95 21.0702C103.214 21.2609 103.558 21.4222 103.984 21.5542C104.424 21.6862 104.878 21.8256 105.348 21.9722C105.817 22.1042 106.264 22.2876 106.69 22.5222C107.115 22.7569 107.46 23.0722 107.724 23.4682C108.002 23.8642 108.142 24.3849 108.142 25.0302C108.142 26.0129 107.79 26.7902 107.086 27.3622C106.396 27.9342 105.465 28.2202 104.292 28.2202Z"
        fill="white"
      />
    </svg>