   <svg
      width="227"
      height="47"
      viewBox="0 0 227 47"
      fill="none"
      xmlns="http://www.w3.org/2000/svg"
    >
      <rect
        x="126"
        y="0.00012207"
        width="16.0408"
        height="46.6765"
        fill="#007946"
      />
      <rect
        x="146.624"
        y="0.00012207"
        width="16.8047"
        height="46.6765"
        fill="#F4F9DE"
      />
      <rect
        x="168.012"
        y="0.00012207"
        width="16.0408"
        height="46.6765"
        fill="#8ED2B1"
      />
      <rect
        x="188.636"
        y="0.00012207"
        width="16.8047"
        height="46.6765"
        fill="#0D8645"
      />
      <rect
        x="210.023"
        y="0.00012207"
        width="16.0408"
        height="46.6765"
        fill="#075B4C"
      />
      <path
        d="M0.5 3.00012C0.5 1.61941 1.61929 0.500122 3 0.500122H57.5C58.8807 0.500122 60 1.61941 60 3.00012V22.0001V44.0001C60 45.3808 58.8807 46.5001 57.5 46.5001H11.5H3C1.61929 46.5001 0.5 45.3808 0.5 44.0001V23.5001V3.00012Z"
        stroke="#FD5D5D"
      />
      <circle cx="12" cy="16.5001" r="3" stroke="#FD5D5D" />
      <path
        d="M87 22.5001C86.1716 22.5001 85.5 23.1717 85.5 24.0001C85.5 24.8285 86.1716 25.5001 87 25.5001V22.5001ZM114.061 25.0608C114.646 24.475 114.646 23.5252 114.061 22.9395L104.515 13.3935C103.929 12.8077 102.979 12.8077 102.393 13.3935C101.808 13.9793 101.808 14.9291 102.393 15.5148L110.879 24.0001L102.393 32.4854C101.808 33.0712 101.808 34.0209 102.393 34.6067C102.979 35.1925 103.929 35.1925 104.515 34.6067L114.061 25.0608ZM87 25.5001H113V22.5001H87V25.5001Z"
        fill="#E2E2E2"
        fillOpacity="0.34"
      />
    </svg>