<svg width="456" height="456" viewBox="0 0 456 456" fill="none" xmlns="http://www.w3.org/2000/svg">
<mask id="mask0_844_157" style="mask-type:alpha" maskUnits="userSpaceOnUse" x="0" y="0" width="228" height="456">
<path d="M228 2.71887e-06C198.059 2.36183e-06 168.41 5.8974 140.748 17.3555C113.086 28.8135 87.9514 45.6079 66.7797 66.7797C45.6079 87.9514 28.8135 113.086 17.3555 140.748C5.8974 168.41 1.76714e-06 198.059 2.71887e-06 228C3.67061e-06 257.941 5.8974 287.59 17.3555 315.252C28.8135 342.914 45.6079 368.049 66.7797 389.22C87.9514 410.392 113.086 427.186 140.748 438.645C168.41 450.103 198.059 456 228 456L228 228L228 2.71887e-06Z" fill="#535BFE"/>
</mask>
<g mask="url(#mask0_844_157)">
<circle cx="228" cy="228" r="228" fill="#535BFE"/>
<mask id="mask1_844_157" style="mask-type:alpha" maskUnits="userSpaceOnUse" x="0" y="0" width="456" height="456">
<circle cx="228" cy="228" r="228" fill="#535BFE"/>
</mask>
<g mask="url(#mask1_844_157)">
<rect x="83" y="281" width="143" height="24" rx="12" fill="#FFFFFE"/>
<rect x="8" y="327" width="185" height="24" rx="12" fill="#FFFFFE"/>
<rect x="215" y="327" width="47" height="24" rx="12" fill="#FFFFFE"/>
<rect x="90" y="18" width="104" height="24" rx="12" fill="#4ECDF8"/>
<rect x="35" y="66" width="159" height="24" rx="12" fill="#4ECDF8"/>
<rect x="13" y="114" width="121" height="24" rx="12" fill="#4ECDF8"/>
<rect x="210" y="65" width="46" height="24" rx="12" fill="#FFFFFE"/>
<rect y="185" width="61" height="24" rx="12" fill="#4FCCF8"/>
<rect x="85" y="161" width="26" height="24" rx="12" fill="#4FCCF8"/>
<rect x="66" y="373" width="103" height="24" rx="12" fill="#FFFFFE"/>
<rect x="90" y="207" width="74" height="26" rx="13" fill="#4FCCF8"/>
<rect x="90" y="255" width="128" height="26" rx="13" fill="#4FCCF8"/>
<path fill-rule="evenodd" clip-rule="evenodd" d="M105.009 255C111.08 254.995 116 250.072 116 244C116 237.925 111.075 233 105 233L151.946 233C145.896 233.03 141.001 237.943 141.001 244C141.001 250.075 145.926 255 152.001 255L153.054 255L153 255L105.009 255Z" fill="#4FCCF8"/>
<path fill-rule="evenodd" clip-rule="evenodd" d="M116.501 326.989C122.344 326.727 127.001 321.908 127.001 316C127.001 310.092 122.344 305.273 116.5 305.011C116.666 305.004 116.833 305 117.001 305L165.001 305C165.168 305 165.334 305.004 165.499 305.011C159.657 305.273 155 310.093 155 316C155 321.908 159.658 326.728 165.502 326.989C165.336 326.996 165.169 327 165.001 327L117.001 327C116.833 327 116.666 326.996 116.501 326.989Z" fill="#FFFFFE"/>
<path fill-rule="evenodd" clip-rule="evenodd" d="M226 17.976C232.002 17.5898 236.75 12.5994 236.75 6.5C236.75 0.400546 232.002 -4.58983 226 -4.97596C226.248 -4.99191 226.498 -5 226.749 -5L273.749 -5C273.833 -5 273.917 -4.99911 274 -4.99733C267.764 -4.8641 262.75 0.232413 262.75 6.5C262.75 12.7677 267.764 17.8642 274 17.9973C273.917 17.9991 273.833 18 273.749 18L226.749 18C226.498 18 226.248 17.9919 226 17.976Z" fill="#FFFFFE"/>
<path fill-rule="evenodd" clip-rule="evenodd" d="M114.5 90.0102C108.104 90.2724 103 95.5401 103 102C103 108.46 108.104 113.728 114.5 113.99C114.334 113.997 114.167 114 114 114L5 114C-1.62741 114 -7 108.627 -7 102C-7 95.3726 -1.62742 90 5 90L114 90C114.167 90 114.334 90.0034 114.5 90.0102Z" fill="#4FCCF8"/>
<path fill-rule="evenodd" clip-rule="evenodd" d="M177.5 42.0102C171.104 42.2724 166 47.5401 166 54C166 60.4599 171.104 65.7276 177.5 65.9898C177.334 65.9966 177.167 66 177 66L68 66C61.3726 66 56 60.6274 56 54C56 47.3726 61.3726 42 68 42L177 42C177.167 42 177.334 42.0034 177.5 42.0102Z" fill="#4FCCF8"/>
<path fill-rule="evenodd" clip-rule="evenodd" d="M89.2503 372.975C94.9755 372.589 99.5 367.823 99.5 362C99.5 356.177 94.9755 351.411 89.2503 351.025C89.4982 351.008 89.7484 351 90.0006 351L154.991 351C148.92 351.005 144 355.928 144 362C144 368.075 148.925 373 155 373L155.011 373L155.001 373L90.0006 373C89.7485 373 89.4983 372.992 89.2503 372.975Z" fill="white"/>
<rect x="154" y="305" width="58" height="22" rx="11" fill="#4FCCF8"/>
<rect x="144" y="351" width="38" height="22" rx="11" fill="#4FCCF8"/>
<rect x="102" y="305" width="25" height="22" rx="11" fill="#4FCCF8"/>
<rect x="162" y="18" width="218" height="24" rx="12" fill="#FFFFFE"/>
</g>
</g>
<mask id="mask2_844_157" style="mask-type:alpha" maskUnits="userSpaceOnUse" x="228" y="0" width="228" height="456">
<path d="M228 456C257.941 456 287.59 450.103 315.252 438.645C342.914 427.186 368.049 410.392 389.22 389.22C410.392 368.049 427.186 342.914 438.645 315.252C450.103 287.59 456 257.941 456 228C456 198.059 450.103 168.41 438.645 140.748C427.186 113.086 410.392 87.9514 389.22 66.7797C368.049 45.6079 342.914 28.8135 315.252 17.3555C287.59 5.8974 257.941 3.98381e-06 228 5.29259e-06L228 228L228 456Z" fill="#4D52EA"/>
</mask>
<g mask="url(#mask2_844_157)">
<circle cx="228" cy="228" r="228" fill="#4247E0"/>
<mask id="mask3_844_157" style="mask-type:alpha" maskUnits="userSpaceOnUse" x="0" y="0" width="456" height="456">
<circle cx="228" cy="228" r="228" fill="#4D52EA"/>
</mask>
<g mask="url(#mask3_844_157)">
<rect x="215" y="327" width="47" height="24" rx="12" fill="#EBEAED"/>
<rect x="256" y="432" width="105" height="24" rx="12" fill="#EBEAED"/>
<rect x="334" y="377" width="85" height="24" rx="12" fill="#EBEAED"/>
<rect x="341" y="113" width="107" height="24" rx="12" fill="#EBEAED"/>
<rect x="279" y="65" width="101" height="24" rx="12" fill="#EBEAED"/>
<rect x="322" y="89" width="50" height="24" rx="12" fill="#27AAD8"/>
<rect x="380" y="89" width="28" height="24" rx="12" fill="#27AAD8"/>
<rect x="381" y="328" width="58" height="24" rx="12" fill="#27AAD8"/>
<rect x="377" y="281" width="84" height="24" rx="12" fill="#27AAD8"/>
<rect x="330" y="233" width="135" height="24" rx="12" fill="#27AAD8"/>
<rect x="296" y="185" width="169" height="24" rx="12" fill="#27AAD8"/>
<rect x="322" y="138" width="81" height="24" rx="12" fill="#27AAD8"/>
<rect x="210" y="65" width="46" height="24" rx="12" fill="#EBEAED"/>
<path fill-rule="evenodd" clip-rule="evenodd" d="M337.25 184.976C343.252 184.59 348 179.599 348 173.5C348 167.401 343.252 162.41 337.25 162.024C337.498 162.008 337.748 162 337.999 162L384.999 162C385.083 162 385.167 162.001 385.25 162.003C379.014 162.136 374 167.232 374 173.5C374 179.768 379.014 184.864 385.25 184.997C385.167 184.999 385.083 185 384.999 185L337.999 185C337.748 185 337.498 184.992 337.25 184.976Z" fill="#27AAD8"/>
<path fill-rule="evenodd" clip-rule="evenodd" d="M226 17.976C232.002 17.5898 236.75 12.5994 236.75 6.50002C236.75 0.400561 232.002 -4.58981 226 -4.97594C226.248 -4.99189 226.498 -4.99999 226.749 -4.99999L273.749 -4.99998C273.833 -4.99998 273.917 -4.99909 274 -4.99731C267.764 -4.86409 262.75 0.232429 262.75 6.50001C262.75 12.7677 267.764 17.8642 274 17.9973C273.917 17.9991 273.833 18 273.749 18L226.749 18C226.498 18 226.248 17.9919 226 17.976Z" fill="#EBEAED"/>
<path fill-rule="evenodd" clip-rule="evenodd" d="M290.427 65C296.773 64.9929 301.914 59.8469 301.914 53.5C301.914 47.1487 296.765 42 290.414 42L270.378 42C270.384 42 270.39 42 270.396 42L363.672 42C357.326 42.0063 352.183 47.1526 352.183 53.5C352.183 59.8513 357.332 65 363.683 65L382.752 65L382.736 65L290.427 65Z" fill="#EBEAED"/>
<path fill-rule="evenodd" clip-rule="evenodd" d="M391.875 327.994C398.053 327.796 403 322.726 403 316.5C403 310.274 398.053 305.204 391.875 305.006C392 305.002 392.125 305 392.25 305L427.491 305C421.144 305.005 416 310.152 416 316.5C416 322.851 421.149 328 427.5 328L434.264 328L434.25 328L392.25 328C392.125 328 392 327.998 391.875 327.994Z" fill="#27AAD8"/>
<path fill-rule="evenodd" clip-rule="evenodd" d="M343.5 232.99C349.896 232.728 355 227.46 355 221C355 214.54 349.896 209.272 343.5 209.01C343.666 209.003 343.833 209 344 209L453 209C459.627 209 465 214.373 465 221C465 227.627 459.627 233 453 233L344 233C343.833 233 343.666 232.997 343.5 232.99Z" fill="#27AAD8"/>
<path fill-rule="evenodd" clip-rule="evenodd" d="M388 280.99C394.396 280.728 399.5 275.46 399.5 269C399.5 262.54 394.396 257.272 388 257.01C388.166 257.003 388.333 257 388.5 257L497.5 257C504.127 257 509.5 262.373 509.5 269C509.5 275.627 504.127 281 497.5 281L388.5 281C388.333 281 388.166 280.997 388 280.99Z" fill="#27AAD8"/>
<rect x="162" y="18" width="218" height="24" rx="12" fill="#EBEAED"/>
</g>
</g>
</svg>
